HIERARCHY
ROOT Hips
{
  OFFSET 1.44925e-005 102.336 -0.101585
  CHANNELS 6 Xposition Yposition Zposition Zrotation Xrotation Yrotation
  JOINT LeftUpLeg
  {
    OFFSET 8.9458 -8.66707 0.101652
    CHANNELS 3 Zrotation Xrotation Yrotation
    JOINT LeftLeg
    {
      OFFSET 0 -44.4227 1.3727
      CHANNELS 3 Zrotation Xrotation Yrotation
      JOINT LeftFoot
      {
        OFFSET -0.253549 -42.0924 -1.46059
        CHANNELS 3 Zrotation Xrotation Yrotation
        JOINT LeftToes
        {
          OFFSET -0.04 -4.41509 8.4991
          CHANNELS 3 Zrotation Xrotation Yrotation
          End Site
          {
            OFFSET 0.08 -0.047448 9.77979
          }
        }
      }
    }
  }
  JOINT Spine
  {
    OFFSET 0 11.8905 0
    CHANNELS 3 Zrotation Xrotation Yrotation
    JOINT Spine1
    {
      OFFSET 0 25.6574 0.127663
      CHANNELS 3 Zrotation Xrotation Yrotation
      JOINT RightShoulder
      {
        OFFSET -8.99 -0.362252 -0.22
        CHANNELS 3 Zrotation Xrotation Yrotation
        JOINT RightArm
        {
          OFFSET -10.2827 -0.00338 0.322123
          CHANNELS 3 Zrotation Xrotation Yrotation
          JOINT RightForeArm
          {
            OFFSET -26.364 0.099144 -1.42434
            CHANNELS 3 Zrotation Xrotation Yrotation
            JOINT RightHand
            {
              OFFSET -22.0324 0.085362 1.02216
              CHANNELS 3 Zrotation Xrotation Yrotation
              End Site
              {
                OFFSET -13.3284 -0.6 1.50291
              }
            }
          }
        }
      }
      JOINT LeftShoulder1
      {
        OFFSET 8.99 -0.362252 -0.22
        CHANNELS 3 Zrotation Xrotation Yrotation
        JOINT LeftArm
        {
          OFFSET 10.2827 -0.00337999 0.322123
          CHANNELS 3 Zrotation Xrotation Yrotation
          JOINT LeftForeArm
          {
            OFFSET 26.2597 0.099144 -1.42434
            CHANNELS 3 Zrotation Xrotation Yrotation
            JOINT LeftHand
            {
              OFFSET 22.0902 0.085362 1.02216
              CHANNELS 3 Zrotation Xrotation Yrotation
              End Site
              {
                OFFSET 13.419 -0.6 1.50291
              }
            }
          }
        }
      }
      JOINT Head
      {
        OFFSET 0 8.73416 0.011341
        CHANNELS 3 Zrotation Xrotation Yrotation
        End Site
        {
          OFFSET -0.29 12.7742 2.51395
        }
      }
    }
  }
  JOINT RightUpLeg
  {
    OFFSET -8.9458 -8.66707 0.101652
    CHANNELS 3 Zrotation Xrotation Yrotation
    JOINT RightLeg
    {
      OFFSET 0 -44.4227 1.3727
      CHANNELS 3 Zrotation Xrotation Yrotation
      JOINT RightFoot
      {
        OFFSET 0.253549 -42.0924 -1.46059
        CHANNELS 3 Zrotation Xrotation Yrotation
        JOINT RightToes
        {
          OFFSET 0.04 -4.41509 8.4991
          CHANNELS 3 Zrotation Xrotation Yrotation
          End Site
          {
            OFFSET -0.08 -0.137448 9.77979
          }
        }
      }
    }
  }
}
MOTION
Frames:	10
Frame Time:	0.0333333
42.0994 95.7652 0.882528 -7.62157 2.82125 -87.5645 0.745752 15.5024 0.788526 1.20633 37.3291 19.1536 -16.9231 -22.9807 -2.22717 -1.27582e-009 8.75257e-006 -1.48264e-008 5.51909 12.1561 -3.42167 3.55073 0.685952 -3.2991 37.4616 1.76891 0.0536773 35.9844 -28.7502 -1.19491 12.622 48.0016 -4.73775 -8.56084 9.60662 -1.1252 -42.5881 3.38553 -3.39349 -24.7185 4.44486 -27.4463 -6.68406 34.0068 -14.078 5.82328 9.61819 -0.917488 -0.982115 -13.8474 -4.61231 2.08664 -22.0254 -9.60152 -0.0339239 27.0226 -16.665 1.31365 -6.11219 -0.183889 0.0462048 0.000530889 0.662642 
38.3914 95.5187 0.321002 -8.30139 4.47731 -88.0603 3.37528 12.356 2.15284 1.4481 47.439 19.5737 -14.0316 -14.5881 -0.849917 -1.27582e-009 8.75257e-006 -1.48264e-008 9.01167 12.2293 -3.13713 2.16573 1.07033 -2.22611 37.6406 1.77954 0.0628542 38.762 -27.939 5.95078 14.0037 48.8904 -6.64497 -8.5443 9.60281 -1.05843 -43.5392 3.47524 -3.43016 -31.1342 -6.43566 -21.7389 -9.82552 43.1811 -8.3823 5.82328 9.61819 -0.917488 -1.10926 -13.8571 -5.17758 4.50213 -21.1048 -10.3581 -1.01609 30.8565 -14.2975 -0.0872082 -7.96387 -0.176708 0.0462048 0.000530889 0.662642 
35.0106 95.3421 -0.347084 -9.00971 5.61896 -87.6239 5.6778 7.53153 2.367 1.85402 58.0382 20.1249 -8.23862 -4.09614 0.276228 -1.27582e-009 8.75257e-006 -1.48264e-008 11.1062 12.4327 -2.97565 1.80324 1.47083 -1.4758 37.7364 1.77843 0.0522423 41.2843 -26.7333 13.3357 15.0947 49.3819 -7.82504 -9.15956 9.553 -0.681675 -44.1102 3.52978 -3.45219 -34.5043 -15.7304 -16.3854 -13.3757 48.948 -2.23701 5.82328 9.61819 -0.917488 -0.635295 -13.5265 -6.08411 6.34745 -19.4845 -9.71661 -1.04896 33.6132 -15.3714 -0.859998 -11.5414 -0.224914 0.0462048 0.000530889 0.662642 
31.8746 95.3538 -0.96446 -9.65036 6.26588 -86.6745 7.11529 2.16516 1.52319 2.51681 67.0851 19.657 -5.16276 2.12236 0.432189 -1.27582e-009 8.75257e-006 -1.48264e-008 12.8281 12.6554 -2.87068 1.34817 1.6466 -0.760629 37.8367 1.76984 0.0242571 43.0136 -25.3836 20.0262 15.0491 48.7707 -7.0631 -10.0111 9.48378 -0.234006 -44.4367 3.55565 -3.45394 -34.6908 -20.4027 -11.0828 -16.3988 51.5213 2.89368 5.82328 9.61819 -0.917488 -0.000621943 -12.6432 -7.46241 7.51329 -17.5087 -9.79539 -1.10703 35.2083 -16.5052 -0.495947 -14.3827 -0.244935 0.0462048 0.000530889 0.662642 
28.718 95.7605 -1.43895 -10.1864 6.36367 -86.2695 7.25495 -2.75939 0.82729 3.39619 73.6028 18.006 -4.98322 1.71736 0.379553 -1.27582e-009 8.75257e-006 -1.48264e-008 14.3319 12.7558 -2.49577 0.00894739 1.60562 0.21388 37.5619 1.75944 0.023596 44.4506 -24.2994 25.883 13.8841 46.9872 -4.57958 -10.4393 9.43832 0.0887017 -44.6817 3.56731 -3.44011 -32.8969 -20.7126 -5.67196 -18.6954 53.4729 6.04767 5.82328 9.61819 -0.917488 0.279956 -11.4719 -8.89732 8.05869 -14.852 -9.798 -1.12609 35.3339 -16.6466 0.593395 -16.2431 -0.183696 0.0462048 0.000530889 0.662642 
25.5469 96.3683 -1.78801 -10.486 6.01484 -86.5412 6.45818 -7.30024 0.508008 4.23564 77.415 15.6264 -5.88906 -1.89391 0.292011 -1.27582e-009 8.75257e-006 -1.48264e-008 15.4776 12.6858 -1.87128 -1.78297 1.4881 1.35121 36.5766 1.74136 0.0655764 46.2871 -23.5463 31.081 12.333 44.5535 -1.45993 -10.5717 9.41307 0.31634 -44.7956 3.56399 -3.41673 -30.6377 -18.0095 -0.236391 -19.9685 55.6486 6.72939 5.82328 9.61819 -0.917488 0.15712 -10.3682 -10.1154 8.07115 -11.8005 -9.6303 -0.965964 34.4538 -16.2353 1.46093 -17.9549 -0.107008 0.0462048 0.000530889 0.662642 
22.4391 97.0008 -2.07292 -10.523 5.44696 -86.983 5.24292 -11.7049 0.0977201 4.48273 78.6148 14.11 -6.37885 -4.74575 0.178086 -1.27582e-009 8.75257e-006 -1.48264e-008 16.2945 12.5352 -1.188 -3.4812 1.19198 2.42165 35.1383 1.70897 0.11464 48.0755 -22.7168 35.4999 10.846 41.7513 1.8714 -10.8896 9.37998 0.51846 -44.7159 3.54405 -3.38983 -29.0059 -13.4569 5.02045 -18.9824 56.1966 4.38431 5.82328 9.61819 -0.917488 -0.108962 -9.46552 -11.1941 7.65984 -8.75688 -9.11823 -0.221496 33.0309 -16.4919 1.80257 -19.4012 -0.0615103 0.0462048 0.000530889 0.662642 
19.4159 97.6719 -2.32924 -10.481 4.79093 -87.3026 3.87328 -15.6794 -0.571134 3.98746 77.4175 14.2884 -5.76701 -6.68784 0.0755316 -1.27582e-009 8.75257e-006 -1.48264e-008 16.7782 12.5156 -0.553858 -5.01459 0.655565 3.29186 33.7513 1.66876 0.141718 48.2167 -20.7133 38.8078 9.37203 37.8946 5.67902 -11.3404 9.33857 0.72319 -44.5533 3.52057 -3.36817 -28.1085 -9.47392 9.94087 -16.4134 54.3186 0.582967 5.82328 9.61819 -0.917488 -0.422526 -8.78529 -12.1135 7.00669 -5.63395 -8.09246 0.999031 31.0235 -17.4314 2.01482 -20.1727 -0.0298574 0.0462048 0.000530889 0.662642 
16.4875 98.2763 -2.54506 -10.5232 4.08041 -87.5446 2.49933 -18.8282 -1.3638 3.20248 74.1465 15.2964 -5.15682 -9.1449 -0.0292658 -1.27582e-009 8.75257e-006 -1.48264e-008 16.8692 12.7113 0.00447175 -6.33611 0.12843 3.94053 32.5842 1.63383 0.162224 45.7202 -16.8588 41.0308 7.77894 32.5197 9.97982 -11.5179 9.31108 0.921887 -44.4418 3.50633 -3.35684 -27.242 -8.20079 14.3574 -14.2028 51.4637 -2.29033 5.82328 9.61819 -0.917488 -0.844339 -8.44634 -12.7 6.27797 -2.40166 -7.09613 1.99313 28.739 -18.009 2.39419 -20.7544 0.0216944 0.0462048 0.000530889 0.662642 
13.6418 98.7251 -2.7197 -10.5506 3.33391 -87.8915 1.26284 -21.1955 -2.05455 2.46493 69.0414 16.1556 -5.49513 -11.3238 -0.125684 -1.27582e-009 8.75257e-006 -1.48264e-008 16.5785 12.9231 0.559925 -7.44314 -0.148359 4.4712 31.5947 1.60587 0.184216 41.681 -12.3571 42.748 6.10797 26.9543 14.2627 -11.399 9.30216 1.09293 -44.3838 3.50114 -3.35526 -25.8718 -9.73175 18.0523 -12.9699 49.333 -3.56593 5.82328 9.61819 -0.917488 -1.27509 -8.55159 -12.9732 5.55424 0.716365 -6.58575 2.45829 26.5331 -17.8953 2.68927 -21.5051 0.0694913 0.0462048 0.000530889 0.662642 
